<svg xmlns="http://www.w3.org/2000/svg" viewBox="0 0 1600 900">
  <defs>
    <linearGradient id="g" x1="0" x2="1" y1="0" y2="1">
      <stop offset="0%" stop-color="#0b1020"/>
      <stop offset="100%" stop-color="#1a2b52"/>
    </linearGradient>
    <linearGradient id="sand" x1="0" x2="0" y1="0" y2="1">
      <stop offset="0%" stop-color="#d9ba72"/>
      <stop offset="100%" stop-color="#8a6a2f"/>
    </linearGradient>
  </defs>
  <rect width="1600" height="900" fill="url(#g)"/>
  <circle cx="1230" cy="170" r="70" fill="#f1d390" opacity="0.95"/>
  <path d="M0 760 C240 680, 410 820, 720 740 C980 670, 1240 810, 1600 720 L1600 900 L0 900 Z" fill="url(#sand)" opacity="0.95"/>
  <rect x="300" y="370" width="46" height="270" fill="#0f1627"/>
  <rect x="380" y="330" width="60" height="310" fill="#101b31"/>
  <rect x="460" y="420" width="64" height="220" fill="#0f1627"/>
  <path d="M835 170 L865 170 L892 640 L808 640 Z" fill="#15213d"/>
  <path d="M850 70 L866 170 L834 170 Z" fill="#f1d390"/>
  <rect x="970" y="300" width="80" height="340" fill="#12203a"/>
  <rect x="1080" y="390" width="72" height="250" fill="#0f1627"/>
  <rect x="1180" y="340" width="92" height="300" fill="#142443"/>
  <text x="100" y="150" font-family="Georgia,serif" font-size="86" fill="#f7f2e8">Dubai</text>
  <text x="100" y="210" font-family="Arial,sans-serif" font-size="28" fill="#d7dce5">Business and First Class travel inspiration</text>
</svg>