<svg xmlns="http://www.w3.org/2000/svg" viewBox="0 0 1600 1000">
  <defs>
    <linearGradient id="bg" x1="0" x2="1" y1="0" y2="1"><stop offset="0%" stop-color="#0a0d12"/><stop offset="100%" stop-color="#213453"/></linearGradient>
    <linearGradient id="seat" x1="0" x2="0" y1="0" y2="1"><stop offset="0%" stop-color="#192130"/><stop offset="100%" stop-color="#0e141d"/></linearGradient>
    <linearGradient id="gold" x1="0" x2="1"><stop offset="0%" stop-color="#d9ba72"/><stop offset="100%" stop-color="#f1d390"/></linearGradient>
  </defs>
  <rect width="1600" height="1000" fill="url(#bg)"/>
  <rect x="120" y="160" width="1360" height="680" rx="48" fill="#0d131c" opacity="0.85"/>
  <rect x="260" y="235" width="410" height="510" rx="36" fill="url(#seat)"/>
  <rect x="930" y="235" width="410" height="510" rx="36" fill="url(#seat)"/>
  <rect x="310" y="310" width="310" height="220" rx="26" fill="#101927"/>
  <rect x="980" y="310" width="310" height="220" rx="26" fill="#101927"/>
  <rect x="290" y="560" width="350" height="120" rx="22" fill="#141e2b"/>
  <rect x="960" y="560" width="350" height="120" rx="22" fill="#141e2b"/>
  <rect x="728" y="240" width="144" height="520" rx="40" fill="#0b1018"/>
  <rect x="760" y="285" width="80" height="200" rx="18" fill="url(#gold)" opacity="0.9"/>
  <rect x="760" y="520" width="80" height="200" rx="18" fill="url(#gold)" opacity="0.25"/>
  <circle cx="1320" cy="165" r="58" fill="#f1d390" opacity="0.92"/>
</svg>