<svg xmlns="http://www.w3.org/2000/svg" viewBox="0 0 1600 900">
  <defs>
    <linearGradient id="g" x1="0" x2="1" y1="0" y2="1">
      <stop offset="0%" stop-color="#0e1624"/>
      <stop offset="100%" stop-color="#2b3e60"/>
    </linearGradient>
  </defs>
  <rect width="1600" height="900" fill="url(#g)"/>
  <circle cx="260" cy="170" r="60" fill="#f1d390" opacity="0.95"/>
  <rect x="0" y="700" width="1600" height="200" fill="#101822"/>
  <rect x="900" y="260" width="110" height="420" fill="#16253d"/>
  <rect x="930" y="230" width="50" height="40" fill="#f1d390"/>
  <circle cx="955" cy="420" r="34" fill="#f7f2e8"/>
  <circle cx="955" cy="420" r="24" fill="#16253d"/>
  <path d="M260 360 A170 170 0 1 0 600 360 A170 170 0 1 0 260 360 M430 360 A90 90 0 1 1 429 360" fill="#d9ba72"/>
  <rect x="420" y="360" width="10" height="180" fill="#d9ba72"/>
  <rect x="280" y="355" width="290" height="10" fill="#d9ba72"/>
  <rect x="1110" y="360" width="80" height="320" fill="#16253d"/>
  <rect x="1230" y="300" width="130" height="380" fill="#1a2d49"/>
  <text x="100" y="150" font-family="Georgia,serif" font-size="86" fill="#f7f2e8">London</text>
  <text x="100" y="210" font-family="Arial,sans-serif" font-size="28" fill="#d7dce5">Premium long-haul travel and city escapes</text>
</svg>